0
SECTION
2
HEADER
9
$INSUNITS
70
4
9
$ACADVER
1
AC1014
9
$HANDSEED
5
FFFF
0
ENDSEC
0
SECTION
2
TABLES
0
TABLE
2
VPORT
5
8
100
AcDbSymbolTable
0
ENDTAB
0
TABLE
2
LTYPE
5
5
100
AcDbSymbolTable
0
LTYPE
5
14
100
AcDbSymbolTableRecord
100
AcDbLinetypeTableRecord
2
BYBLOCK
70
0
0
LTYPE
5
15
100
AcDbSymbolTableRecord
100
AcDbLinetypeTableRecord
2
BYLAYER
70
0
0
ENDTAB
0
TABLE
2
LAYER
5
2
100
AcDbSymbolTable
70
2
0
LAYER
5
50
100
AcDbSymbolTableRecord
100
AcDbLayerTableRecord
2
0
70
0
6
CONTINUOUS
0
ENDTAB
0
TABLE
2
STYLE
5
3
100
AcDbSymbolTable
70
1
0
STYLE
5
11
100
AcDbSymbolTableRecord
100
AcDbTextStyleTableRecord
2
STANDARD
70
0
0
ENDTAB
0
TABLE
2
VIEW
5
6
100
AcDbSymbolTable
70
0
0
ENDTAB
0
TABLE
2
UCS
5
7
100
AcDbSymbolTable
70
0
0
ENDTAB
0
TABLE
2
APPID
5
9
100
AcDbSymbolTable
70
2
0
APPID
5
12
100
AcDbSymbolTableRecord
100
AcDbRegAppTableRecord
2
ACAD
70
0
0
ENDTAB
0
TABLE
2
DIMSTYLE
5
A
100
AcDbSymbolTable
70
1
0
ENDTAB
0
TABLE
2
BLOCK_RECORD
5
1
100
AcDbSymbolTable
70
1
0
BLOCK_RECORD
5
1F
100
AcDbSymbolTableRecord
100
AcDbBlockTableRecord
2
*MODEL_SPACE
0
BLOCK_RECORD
5
1B
100
AcDbSymbolTableRecord
100
AcDbBlockTableRecord
2
*PAPER_SPACE
0
ENDTAB
0
ENDSEC
0
SECTION
2
BLOCKS
0
BLOCK
5
20
100
AcDbEntity
100
AcDbBlockBegin
2
*MODEL_SPACE
0
ENDBLK
5
21
100
AcDbEntity
100
AcDbBlockEnd
0
BLOCK
5
1C
100
AcDbEntity
100
AcDbBlockBegin
2
*PAPER_SPACE
0
ENDBLK
5
1D
100
AcDbEntity
100
AcDbBlockEnd
0
ENDSEC
0
SECTION
2
ENTITIES
0
LWPOLYLINE
5
100
100
AcDbEntity
8
0
100
AcDbPolyline
90
12
70
1
43
0.0
10
22.800000329068055
20
79.14999952847748
10
8.8000003290680517
20
79.14999952847748
10
8.8000003290680517
20
78.54999842430145
10
8.000000329068051
20
78.549999528477485
10
7.9999992293623556
20
65.749998710403744
10
8.8000003290680517
20
65.749998710403744
10
8.8000003290680517
20
65.149999528477466
10
22.800000329068055
20
65.150000064919297
10
22.800000329068055
20
65.750000064919291
10
23.600000329068056
20
65.750000064919291
10
23.600000329068056
20
78.549999528477485
10
22.800000329068055
20
78.549999528477485
0
LINE
5
101
100
AcDbEntity
8
0
100
AcDbLine
10
8.8000003290680517
20
65.149999528477466
30
0
11
22.800000329068055
21
65.150000064919297
31
0
0
LINE
5
102
100
AcDbEntity
8
0
100
AcDbLine
10
8.8000003290680517
20
79.14999952847748
30
0
11
22.800000329068055
21
79.14999952847748
31
0
0
LWPOLYLINE
5
103
100
AcDbEntity
8
0
100
AcDbPolyline
90
12
70
1
43
0.0
10
22.799974035875898
20
46.700000064937434
10
22.799974035875898
20
46.100000064937433
10
8.7999740358758949
20
46.09999952849563
10
8.7999740358758949
20
46.69999871042188
10
7.9999729361701988
20
46.69999871042188
10
7.9999740358758942
20
59.499999528495628
10
8.7999740358758949
20
59.499998424319585
10
8.7999740358758949
20
60.09999952849563
10
22.799974035875898
20
60.099999528495623
10
22.799974035875898
20
59.499999528495628
10
23.599974035875899
20
59.499999528495628
10
23.599974035875899
20
46.700000064937434
0
LINE
5
104
100
AcDbEntity
8
0
100
AcDbLine
10
22.799974035875898
20
46.100000064937433
30
0
11
8.7999740358758949
21
46.09999952849563
31
0
0
LINE
5
105
100
AcDbEntity
8
0
100
AcDbLine
10
8.7999740358758949
20
60.09999952849563
30
0
11
22.799974035875898
21
60.099999528495623
31
0
0
LWPOLYLINE
5
106
100
AcDbEntity
8
0
100
AcDbPolyline
90
12
70
1
43
0.0
10
27.850000329068052
20
65.14999952847748
10
41.850000329068052
20
65.150000064919297
10
41.850000329068052
20
65.750000064919291
10
42.650000329068064
20
65.750000064919291
10
42.650000329068064
20
78.549999528477485
10
41.850000329068052
20
78.549999528477485
10
41.850000329068052
20
79.14999952847748
10
27.850000329068052
20
79.149999528477494
10
27.850000329068052
20
78.54999842430145
10
27.050000329068055
20
78.549999528477485
10
27.049999229362356
20
65.749998710403744
10
27.850000329068052
20
65.749998710403744
0
LINE
5
107
100
AcDbEntity
8
0
100
AcDbLine
10
27.850000329068052
20
79.149999528477494
30
0
11
41.850000329068052
21
79.14999952847748
31
0
0
LINE
5
108
100
AcDbEntity
8
0
100
AcDbLine
10
27.850000329068052
20
65.14999952847748
30
0
11
41.850000329068052
21
65.150000064919297
31
0
0
LWPOLYLINE
5
109
100
AcDbEntity
8
0
100
AcDbPolyline
90
12
70
1
43
0.0
10
27.849974035875896
20
59.499998424319585
10
27.849974035875896
20
60.09999952849563
10
41.849974035875888
20
60.09999952849563
10
41.849974035875888
20
59.499999528495628
10
42.649974035875914
20
59.499999528495628
10
42.649974035875914
20
46.700000064937434
10
41.849974035875888
20
46.700000064937434
10
41.849974035875888
20
46.100000064937433
10
27.849974035875896
20
46.09999952849563
10
27.849974035875896
20
46.69999871042188
10
27.049972936170199
20
46.69999871042188
10
27.049974035875898
20
59.499999528495628
0
LINE
5
110
100
AcDbEntity
8
0
100
AcDbLine
10
27.849974035875896
20
60.09999952849563
30
0
11
41.849974035875888
21
60.09999952849563
31
0
0
LINE
5
111
100
AcDbEntity
8
0
100
AcDbLine
10
27.849974035875896
20
46.09999952849563
30
0
11
41.849974035875888
21
46.100000064937433
31
0
0
LWPOLYLINE
5
112
100
AcDbEntity
8
0
100
AcDbPolyline
90
12
70
1
43
0.0
10
46.100000329068052
20
78.549999528477485
10
46.900000329068057
20
78.54999842430145
10
46.900000329068057
20
79.149999528477494
10
60.900000329068064
20
79.14999952847748
10
60.900000329068064
20
78.549999528477485
10
61.700000329068061
20
78.549999528477485
10
61.700000329068061
20
65.750000064919291
10
60.900000329068064
20
65.750000064919291
10
60.900000329068064
20
65.150000064919297
10
46.900000329068057
20
65.14999952847748
10
46.900000329068057
20
65.749998710403744
10
46.099999229362361
20
65.749998710403744
0
LWPOLYLINE
5
113
100
AcDbEntity
8
0
100
AcDbPolyline
90
12
70
1
43
0.0
10
79.950000329068047
20
65.750000064919291
10
79.950000329068047
20
65.150000064919297
10
65.950000329068047
20
65.14999952847748
10
65.950000329068047
20
65.749998710403744
10
65.149999229362351
20
65.749998710403744
10
65.150000329068064
20
78.549999528477485
10
65.950000329068047
20
78.54999842430145
10
65.950000329068047
20
79.149999528477494
10
79.950000329068047
20
79.14999952847748
10
79.950000329068047
20
78.549999528477485
10
80.750000329068072
20
78.549999528477485
10
80.750000329068072
20
65.750000064919291
0
LWPOLYLINE
5
114
100
AcDbEntity
8
0
100
AcDbPolyline
90
12
70
1
43
0.0
10
60.8999740358759
20
60.09999952849563
10
46.8999740358759
20
60.09999952849563
10
46.8999740358759
20
59.499998424319585
10
46.099974035875903
20
59.499999528495628
10
46.099972936170204
20
46.69999871042188
10
46.8999740358759
20
46.69999871042188
10
46.8999740358759
20
46.09999952849563
10
60.8999740358759
20
46.100000064937433
10
60.8999740358759
20
46.700000064937434
10
61.699974035875904
20
46.700000064937434
10
61.699974035875904
20
59.499999528495628
10
60.8999740358759
20
59.499999528495628
0
LINE
5
115
100
AcDbEntity
8
0
100
AcDbLine
10
46.900000329068057
20
79.149999528477494
30
0
11
60.900000329068064
21
79.14999952847748
31
0
0
LINE
5
116
100
AcDbEntity
8
0
100
AcDbLine
10
60.8999740358759
20
46.100000064937433
30
0
11
46.8999740358759
21
46.09999952849563
31
0
0
LINE
5
117
100
AcDbEntity
8
0
100
AcDbLine
10
60.900000329068064
20
65.150000064919297
30
0
11
46.900000329068057
21
65.14999952847748
31
0
0
LINE
5
118
100
AcDbEntity
8
0
100
AcDbLine
10
46.8999740358759
20
60.09999952849563
30
0
11
60.8999740358759
21
60.09999952849563
31
0
0
LWPOLYLINE
5
119
100
AcDbEntity
8
0
100
AcDbPolyline
90
12
70
1
43
0.0
10
79.949974035875897
20
46.700000064937434
10
79.949974035875897
20
46.100000064937433
10
65.949974035875897
20
46.09999952849563
10
65.949974035875897
20
46.69999871042188
10
65.149972936170201
20
46.69999871042188
10
65.149974035875914
20
59.499999528495628
10
65.949974035875897
20
59.499998424319585
10
65.949974035875897
20
60.09999952849563
10
79.949974035875897
20
60.099999528495616
10
79.949974035875897
20
59.499999528495628
10
80.749974035875908
20
59.499999528495628
10
80.749974035875908
20
46.700000064937434
0
LINE
5
120
100
AcDbEntity
8
0
100
AcDbLine
10
65.950000329068047
20
79.149999528477494
30
0
11
79.950000329068047
21
79.14999952847748
31
0
0
LINE
5
121
100
AcDbEntity
8
0
100
AcDbLine
10
79.949974035875897
20
46.100000064937433
30
0
11
65.949974035875897
21
46.09999952849563
31
0
0
LINE
5
122
100
AcDbEntity
8
0
100
AcDbLine
10
79.950000329068047
20
65.150000064919297
30
0
11
65.950000329068047
21
65.14999952847748
31
0
0
LINE
5
123
100
AcDbEntity
8
0
100
AcDbLine
10
65.949974035875897
20
60.09999952849563
30
0
11
79.949974035875897
21
60.099999528495616
31
0
0
LWPOLYLINE
5
124
100
AcDbEntity
8
0
100
AcDbPolyline
90
12
70
1
43
0.0
10
7.9999477426837373
20
40.449999528513771
10
8.799947742683738
20
40.449998424337736
10
8.799947742683738
20
41.04999952851378
10
22.799947742683742
20
41.049999528513766
10
22.799947742683742
20
40.449999528513771
10
23.599947742683742
20
40.449999528513771
10
23.599947742683742
20
27.650000064955577
10
22.799947742683742
20
27.650000064955577
10
22.799947742683742
20
27.050000064955576
10
8.799947742683738
20
27.049999528513769
10
8.799947742683738
20
27.649998710440023
10
7.9999466429780419
20
27.649998710440023
0
LWPOLYLINE
5
125
100
AcDbEntity
8
0
100
AcDbPolyline
90
12
70
1
43
0.0
10
22.799921449491585
20
21.999999528531905
10
8.7999214494915812
20
21.999999528531916
10
8.7999214494915812
20
21.399998424355871
10
7.9999214494915805
20
21.399999528531918
10
7.9999203497858851
20
8.5999987104581663
10
8.7999214494915812
20
8.5999987104581663
10
8.7999214494915812
20
7.9999995285319114
10
22.799921449491585
20
8.0000000649737188
10
22.799921449491585
20
8.6000000649737185
10
23.599921449491585
20
8.6000000649737185
10
23.599921449491585
20
21.399999528531918
10
22.799921449491585
20
21.399999528531918
0
LWPOLYLINE
5
126
100
AcDbEntity
8
0
100
AcDbPolyline
90
12
70
1
43
0.0
10
46.899921449491586
20
8.5999987104581663
10
46.899921449491586
20
7.9999995285319114
10
60.899921449491586
20
8.0000000649737188
10
60.899921449491586
20
8.6000000649737185
10
61.69992144949159
20
8.6000000649737185
10
61.69992144949159
20
21.399999528531918
10
60.899921449491586
20
21.399999528531918
10
60.899921449491586
20
21.999999528531902
10
46.899921449491586
20
21.999999528531916
10
46.899921449491586
20
21.399998424355871
10
46.099921449491589
20
21.399999528531918
10
46.09992034978589
20
8.5999987104581663
0
LWPOLYLINE
5
127
100
AcDbEntity
8
0
100
AcDbPolyline
90
12
70
1
43
0.0
10
65.14994774268375
20
40.449999528513771
10
65.949947742683733
20
40.449998424337736
10
65.949947742683733
20
41.04999952851378
10
79.949947742683705
20
41.04999952851383
10
79.949947742683747
20
40.449999528513771
10
80.749947742683759
20
40.449999528513771
10
80.74994774268373
20
27.650000064955577
10
79.949947742683747
20
27.650000064955577
10
79.949947742683747
20
27.050000064955576
10
65.949947742683733
20
27.049999528513769
10
65.949947742683733
20
27.649998710440023
10
65.149946642978037
20
27.649998710440023
0
LWPOLYLINE
5
128
100
AcDbEntity
8
0
100
AcDbPolyline
90
12
70
1
43
0.0
10
61.699947742683747
20
27.650000064955577
10
60.89994774268375
20
27.650000064955577
10
60.89994774268375
20
27.050000064955576
10
46.899947742683743
20
27.049999528513769
10
46.899947742683743
20
27.649998710440023
10
46.099946642978047
20
27.649998710440023
10
46.099947742683739
20
40.449999528513771
10
46.899947742683743
20
40.449998424337736
10
46.899947742683743
20
41.04999952851378
10
60.89994774268375
20
41.049999528513759
10
60.89994774268375
20
40.449999528513771
10
61.699947742683747
20
40.449999528513771
0
LWPOLYLINE
5
129
100
AcDbEntity
8
0
100
AcDbPolyline
90
12
70
1
43
0.0
10
27.049920349785886
20
8.5999987104581663
10
27.849921449491582
20
8.5999987104581663
10
27.849921449491582
20
7.9999995285319114
10
41.849921449491575
20
8.0000000649737188
10
41.849921449491575
20
8.6000000649737185
10
42.6499214494916
20
8.6000000649737185
10
42.6499214494916
20
21.399999528531918
10
41.849921449491575
20
21.399999528531918
10
41.849921449491575
20
21.999999528531916
10
27.849921449491582
20
21.999999528531916
10
27.849921449491582
20
21.399998424355871
10
27.049921449491585
20
21.399999528531918
0
LWPOLYLINE
5
130
100
AcDbEntity
8
0
100
AcDbPolyline
90
12
70
1
43
0.0
10
41.849947742683739
20
40.449999528513771
10
41.849947742683739
20
41.049999528513766
10
27.849947742683739
20
41.04999952851378
10
27.849947742683739
20
40.449998424337736
10
27.049947742683742
20
40.449999528513771
10
27.049946642978043
20
27.649998710440023
10
27.849947742683739
20
27.649998710440023
10
27.849947742683739
20
27.049999528513769
10
41.849947742683739
20
27.050000064955576
10
41.849947742683739
20
27.650000064955577
10
42.64994774268375
20
27.650000064955577
10
42.64994774268375
20
40.449999528513771
0
LWPOLYLINE
5
131
100
AcDbEntity
8
0
100
AcDbPolyline
90
12
70
1
43
0.0
10
80.749921449491609
20
8.6000000649737185
10
79.949921449491583
20
8.6000000649737185
10
79.949921449491583
20
8.0000000649737188
10
65.949921449491583
20
7.9999995285319114
10
65.949921449491583
20
8.5999987104581663
10
65.149920349785887
20
8.5999987104581663
10
65.1499214494916
20
21.399999528531918
10
65.949921449491583
20
21.399998424355871
10
65.949921449491583
20
21.999999528531916
10
79.949921449491583
20
21.999999528531941
10
79.949921449491583
20
21.399999528531918
10
80.749921449491609
20
21.399999528531918
0
LINE
5
132
100
AcDbEntity
8
0
100
AcDbLine
10
8.7999214494915812
20
21.999999528531916
30
0
11
22.799921449491585
21
21.999999528531905
31
0
0
LINE
5
133
100
AcDbEntity
8
0
100
AcDbLine
10
8.7999214494915812
20
7.9999995285319114
30
0
11
22.799921449491585
21
8.0000000649737188
31
0
0
LINE
5
134
100
AcDbEntity
8
0
100
AcDbLine
10
65.949947742683733
20
41.04999952851378
30
0
11
79.949947742683705
21
41.04999952851383
31
0
0
LINE
5
135
100
AcDbEntity
8
0
100
AcDbLine
10
65.949947742683733
20
27.049999528513769
30
0
11
79.949947742683747
21
27.050000064955576
31
0
0
LINE
5
136
100
AcDbEntity
8
0
100
AcDbLine
10
8.799947742683738
20
41.04999952851378
30
0
11
22.799947742683742
21
41.049999528513766
31
0
0
LINE
5
137
100
AcDbEntity
8
0
100
AcDbLine
10
8.799947742683738
20
27.049999528513769
30
0
11
22.799947742683742
21
27.050000064955576
31
0
0
LINE
5
138
100
AcDbEntity
8
0
100
AcDbLine
10
65.949921449491583
20
21.999999528531916
30
0
11
79.949921449491583
21
21.999999528531941
31
0
0
LINE
5
139
100
AcDbEntity
8
0
100
AcDbLine
10
46.899947742683743
20
27.049999528513769
30
0
11
60.89994774268375
21
27.050000064955576
31
0
0
LINE
5
140
100
AcDbEntity
8
0
100
AcDbLine
10
46.899947742683743
20
41.04999952851378
30
0
11
60.89994774268375
21
41.049999528513759
31
0
0
LINE
5
141
100
AcDbEntity
8
0
100
AcDbLine
10
46.899921449491586
20
7.9999995285319114
30
0
11
60.899921449491586
21
8.0000000649737188
31
0
0
LINE
5
142
100
AcDbEntity
8
0
100
AcDbLine
10
46.899921449491586
20
21.999999528531916
30
0
11
60.899921449491586
21
21.999999528531902
31
0
0
LINE
5
143
100
AcDbEntity
8
0
100
AcDbLine
10
27.849947742683739
20
27.049999528513769
30
0
11
41.849947742683739
21
27.050000064955576
31
0
0
LINE
5
144
100
AcDbEntity
8
0
100
AcDbLine
10
27.849921449491582
20
21.999999528531916
30
0
11
41.849921449491575
21
21.999999528531916
31
0
0
LINE
5
145
100
AcDbEntity
8
0
100
AcDbLine
10
27.849947742683739
20
41.04999952851378
30
0
11
41.849947742683739
21
41.049999528513766
31
0
0
LINE
5
146
100
AcDbEntity
8
0
100
AcDbLine
10
41.849921449491575
20
8.0000000649737188
30
0
11
27.849921449491582
21
7.9999995285319114
31
0
0
LINE
5
147
100
AcDbEntity
8
0
100
AcDbLine
10
79.949921449491583
20
8.0000000649737188
30
0
11
65.949921449491583
21
7.9999995285319114
31
0
0
LWPOLYLINE
5
148
100
AcDbEntity
8
0
100
AcDbPolyline
90
12
70
1
43
0.0
10
118.85000032906801
20
65.750000064919277
10
118.85000032906808
20
78.549999528477485
10
118.05000032906806
20
78.549999528477485
10
118.05000032906798
20
79.149999528477636
10
104.05000032906806
20
79.14999952847748
10
104.05000032906806
20
78.549998424301435
10
103.25000032906807
20
78.549999528477485
10
103.24999922936236
20
65.74999871040373
10
104.05000032906806
20
65.74999871040373
10
104.05000032906806
20
65.149999528477466
10
118.05000032906806
20
65.150000064919283
10
118.05000032906806
20
65.750000064919277
0
LWPOLYLINE
5
149
100
AcDbEntity
8
0
100
AcDbPolyline
90
12
70
1
43
0.0
10
98.999947742683759
20
40.449999528513771
10
98.999947742683759
20
41.04999952851383
10
84.999947742683744
20
41.049999528513759
10
84.999947742683744
20
40.449998424337714
10
84.199947742683747
20
40.449999528513771
10
84.199946642978048
20
27.649998710440013
10
84.999947742683744
20
27.649998710440013
10
84.999947742683744
20
27.049999528513759
10
98.999947742683759
20
27.050000064955565
10
98.999947742683759
20
27.650000064955567
10
99.799947742683756
20
27.650000064955567
10
99.799947742683756
20
40.449999528513771
0
LWPOLYLINE
5
150
100
AcDbEntity
8
0
100
AcDbPolyline
90
12
70
1
43
0.0
10
84.199974035875897
20
59.499999528495628
10
84.199972936170212
20
46.699998710421866
10
84.999974035875908
20
46.699998710421866
10
84.999974035875908
20
46.099999528495616
10
98.999974035875908
20
46.100000064937419
10
98.999974035875908
20
46.700000064937427
10
99.799974035875906
20
46.700000064937427
10
99.799974035875906
20
59.499999528495628
10
98.999974035875908
20
59.499999528495628
10
98.999974035875908
20
60.099999528495616
10
84.999974035875908
20
60.099999528495616
10
84.999974035875908
20
59.499998424319571
0
LWPOLYLINE
5
151
100
AcDbEntity
8
0
100
AcDbPolyline
90
12
70
1
43
0.0
10
104.04997403587589
20
46.099999528495616
10
118.04997403587591
20
46.100000064937419
10
118.04997403587591
20
46.700000064937427
10
118.84997403587592
20
46.700000064937427
10
118.84997403587592
20
59.499999528495628
10
118.04997403587591
20
59.499999528495628
10
118.04997403587591
20
60.099999528495651
10
104.04997403587589
20
60.099999528495616
10
104.04997403587589
20
59.499998424319571
10
103.24997403587591
20
59.499999528495628
10
103.2499729361702
20
46.699998710421866
10
104.04997403587589
20
46.699998710421866
0
LWPOLYLINE
5
152
100
AcDbEntity
8
0
100
AcDbPolyline
90
12
70
1
43
0.0
10
99.80000032906807
20
65.750000064919277
10
99.000000329068058
20
65.750000064919277
10
99.000000329068058
20
65.150000064919283
10
85.000000329068058
20
65.149999528477466
10
85.000000329068058
20
65.74999871040373
10
84.199999229362362
20
65.74999871040373
10
84.200000329068061
20
78.549999528477485
10
85.000000329068058
20
78.549998424301435
10
85.000000329068058
20
79.14999952847748
10
99.000000329068058
20
79.149999528477451
10
99.000000329068058
20
78.549999528477485
10
99.80000032906807
20
78.549999528477485
0
LWPOLYLINE
5
153
100
AcDbEntity
8
0
100
AcDbPolyline
90
12
70
1
43
0.0
10
84.999921449491595
20
8.5999987104581557
10
84.999921449491595
20
7.9999995285319025
10
98.999921449491595
20
8.0000000649737082
10
98.999921449491595
20
8.6000000649737096
10
99.799921449491592
20
8.6000000649737096
10
99.799921449491592
20
21.399999528531911
10
98.999921449491595
20
21.399999528531911
10
98.999921449491595
20
21.999999528531966
10
84.999921449491595
20
21.999999528531905
10
84.999921449491595
20
21.399998424355861
10
84.199921449573495
20
21.399999529868584
10
84.199920349785899
20
8.5999987104581557
0
LINE
5
154
100
AcDbEntity
8
0
100
AcDbLine
10
84.999974035875908
20
60.099999528495616
30
0
11
98.999974035875908
21
60.099999528495616
31
0
0
LWPOLYLINE
5
155
100
AcDbEntity
8
0
100
AcDbPolyline
90
12
70
1
43
0.0
10
118.84994774268372
20
27.650000064954853
10
118.84994774268377
20
40.449999528513771
10
118.04994774268374
20
40.449999528513771
10
118.04994774268371
20
41.04999952851383
10
104.04994774268374
20
41.049999528513759
10
104.04994774268374
20
40.449998424337714
10
103.24994774268376
20
40.449999528513771
10
103.24994664297805
20
27.649998710440013
10
104.04994774268374
20
27.649998710440013
10
104.04994774268374
20
27.049999528513759
10
118.04994774268374
20
27.050000064955565
10
118.04994774268374
20
27.650000064955567
0
LWPOLYLINE
5
156
100
AcDbEntity
8
0
100
AcDbPolyline
90
12
70
1
43
0.0
10
104.04992144949159
20
21.399998424355861
10
104.04992144949159
20
21.999999528531905
10
118.04992144949159
20
21.999999528531934
10
118.04992144949159
20
21.399999528531911
10
118.8499214494916
20
21.399999528531911
10
118.8499214494916
20
8.6000000649737096
10
118.04992144949159
20
8.6000000649737096
10
118.04992144949159
20
8.0000000649737082
10
104.04992144949159
20
7.9999995285319025
10
104.04992144949159
20
8.5999987104581557
10
103.2499203497859
20
8.5999987104581557
10
103.24992144958591
20
21.399999530300864
0
LINE
5
157
100
AcDbEntity
8
0
100
AcDbLine
10
104.04992144949159
20
21.999999528531905
30
0
11
118.04992144949159
21
21.999999528531934
31
0
0
LINE
5
158
100
AcDbEntity
8
0
100
AcDbLine
10
104.04994774268374
20
41.049999528513759
30
0
11
118.04994774268371
21
41.04999952851383
31
0
0
LINE
5
159
100
AcDbEntity
8
0
100
AcDbLine
10
104.05000032906806
20
65.149999528477466
30
0
11
118.05000032906806
21
65.150000064919283
31
0
0
LINE
5
160
100
AcDbEntity
8
0
100
AcDbLine
10
84.999947742683744
20
41.049999528513759
30
0
11
98.999947742683759
21
41.04999952851383
31
0
0
LINE
5
161
100
AcDbEntity
8
0
100
AcDbLine
10
104.04997403587589
20
46.099999528495616
30
0
11
118.04997403587591
21
46.100000064937419
31
0
0
LINE
5
162
100
AcDbEntity
8
0
100
AcDbLine
10
118.04992144949159
20
8.0000000649737082
30
0
11
104.04992144949159
21
7.9999995285319025
31
0
0
LINE
5
163
100
AcDbEntity
8
0
100
AcDbLine
10
104.04994774268374
20
27.049999528513759
30
0
11
118.04994774268374
21
27.050000064955565
31
0
0
LINE
5
164
100
AcDbEntity
8
0
100
AcDbLine
10
104.04997403587589
20
60.099999528495616
30
0
11
118.04997403587591
21
60.099999528495651
31
0
0
LINE
5
165
100
AcDbEntity
8
0
100
AcDbLine
10
84.999947742683744
20
27.049999528513759
30
0
11
98.999947742683759
21
27.050000064955565
31
0
0
LINE
5
166
100
AcDbEntity
8
0
100
AcDbLine
10
99.000000329068058
20
65.150000064919283
30
0
11
85.000000329068058
21
65.149999528477466
31
0
0
LINE
5
167
100
AcDbEntity
8
0
100
AcDbLine
10
84.999974035875908
20
46.099999528495616
30
0
11
98.999974035875908
21
46.100000064937419
31
0
0
LINE
5
168
100
AcDbEntity
8
0
100
AcDbLine
10
85.000000329068058
20
79.14999952847748
30
0
11
99.000000329068058
21
79.149999528477451
31
0
0
LINE
5
169
100
AcDbEntity
8
0
100
AcDbLine
10
104.05000032906806
20
79.14999952847748
30
0
11
118.05000032906798
21
79.149999528477636
31
0
0
LINE
5
170
100
AcDbEntity
8
0
100
AcDbLine
10
98.999921449491595
20
8.0000000649737082
30
0
11
84.999921449491595
21
7.9999995285319025
31
0
0
LINE
5
171
100
AcDbEntity
8
0
100
AcDbLine
10
84.999921449491595
20
21.999999528531905
30
0
11
98.999921449491595
21
21.999999528531966
31
0
0
LWPOLYLINE
5
172
100
AcDbEntity
8
0
100
AcDbPolyline
90
43
70
1
43
0.0
10
50.990445966835161
20
86.435484021012797
10
54.825483123953838
20
81.86451503594219
42
0.22171019435856884
10
56.357648134470395
20
81.149999528477508
10
70.492979486245545
20
81.14999952847748
42
0.2215580436260107
10
72.024398520326841
20
81.863626432500496
10
75.865448908987901
20
86.436372624454492
42
-0.22155804362600895
10
77.396867943069211
20
87.149999528477494
10
116.84992144949162
20
87.149999528477494
42
-0.41421356237309348
10
126.84992144949162
20
77.14999952847748
10
126.8499214494916
20
57.536439038423772
42
-0.22186162416710548
10
126.1345211762349
20
56.003532145605078
10
121.56537430913266
20
52.17451627750053
42
0.22186162416710817
10
120.84997403587592
20
50.641609384681843
10
120.84997403587592
20
43.57499976423874
10
120.84997403587592
20
36.507500034954987
42
0.22166987668609708
10
121.56425404011932
20
34.975532642184604
10
126.13564144524821
20
31.138946940125276
42
-0.22166987668609711
10
126.84992144949162
20
29.606979547354896
10
126.84992144949162
20
10.000001547487706
42
-0.41421355115022812
10
116.84992183266432
20
1.5474877157473088e-06
10
77.395871127282533
20
3.5716144625164148e-08
42
-0.22158705254124453
10
75.864309795216286
20
0.71379627236430654
10
72.02440619160221
20
5.2862036555941616
42
0.22158705254123101
10
70.492844859535936
20
5.9999998922423181
10
63.424960724745802
20
5.9999996214203
10
56.357723128511367
20
5.9999996214203
42
0.22172635063459087
10
54.825478938842629
20
5.2853897346646717
10
50.991080175294968
20
0.71460988675562254
42
-0.22172635063458121
10
49.458835985626223
20
4.4408920985006262e-15
10
9.999999999999984
20
0
42
-0.41421356237309515
10
-8.8817841970012523e-15
20
9.9999999999999964
10
-7.4940054162198066e-15
20
29.604615672106892
42
-0.22160167887761076
10
0.713881707853119
20
31.136248702112837
10
5.2860906210891745
20
34.975550547677663
42
0.22160165634423318
10
5.9999723289422846
20
36.507183405854612
10
5.9999729361702059
20
43.57499976423874
10
5.999973543393482
20
50.642762046209398
42
0.22161330799842954
10
5.2860240547933124
20
52.174452161247622
10
0.71394948860017182
20
56.013296217173938
42
-0.22161328546492085
10
-8.8817841970012523e-15
20
57.544986160383161
10
0
20
77.14999952847748
42
-0.41421356237309476
10
9.9999999999999911
20
87.14999952847748
10
49.458280956318603
20
87.14999952847748
42
-0.22171019435856704
0
LINE
5
173
100
AcDbEntity
8
0
100
AcDbLine
10
5.9999729361702059
20
46.699998882250888
30
0
11
5.9999729361702059
21
43.57499976423874
31
0
0
ENDSEC
0
SECTION
2
OBJECTS
0
DICTIONARY
5
C
100
AcDbDictionary
3
ACAD_GROUP
350
D
3
ACAD_MLINESTYLE
350
17
0
DICTIONARY
5
D
100
AcDbDictionary
0
DICTIONARY
5
1A
330
C
100
AcDbDictionary
0
DICTIONARY
5
17
100
AcDbDictionary
0
ENDSEC
0
EOF
